<svg xmlns="http://www.w3.org/2000/svg" width="1400" height="320" viewBox="0 0 1400 320">
<defs><pattern id="d" width="10" height="10" patternUnits="userSpaceOnUse"><circle cx="2" cy="2" r="1.4" fill="#fff" opacity=".12"/></pattern></defs>
<rect width="1400" height="320" fill="#080808"/>
<rect width="1400" height="320" fill="url(#d)"/>
<polygon points="0,0 525,0 442,320 0,320" fill="#ed0014"/>
<polygon points="470,0 1400,0 1400,55 455,102" fill="#fff"/>
<text x="42" y="58" font-family="Impact,Arial Black,sans-serif" font-size="42" fill="#fff">IDENTITY // DOSSIER</text>
<text x="48" y="122" font-family="Arial Black,Arial,sans-serif" font-size="19" fill="#000">NAME</text><text x="160" y="122" font-family="Arial,Arial,sans-serif" font-size="21" fill="#000">Ardre</text>
<text x="48" y="158" font-family="Arial Black,Arial,sans-serif" font-size="19" fill="#000">CLASS</text><text x="160" y="158" font-family="Arial,Arial,sans-serif" font-size="21" fill="#000">IT Student / Full-Stack Dev</text>
<text x="48" y="194" font-family="Arial Black,Arial,sans-serif" font-size="19" fill="#000">BASE</text><text x="160" y="194" font-family="Arial,Arial,sans-serif" font-size="21" fill="#000">Philippines</text>
<text x="48" y="230" font-family="Arial Black,Arial,sans-serif" font-size="19" fill="#000">TRAIT</text><text x="160" y="230" font-family="Arial,Arial,sans-serif" font-size="21" fill="#000">makes projects bigger than they need to be</text>

<!-- original mask emblem -->
<g transform="translate(575 88)">
<polygon points="0,42 78,0 156,42 132,134 78,174 24,134" fill="#fff" stroke="#ed0014" stroke-width="9"/>
<polygon points="28,62 66,46 58,94 24,96" fill="#080808"/>
<polygon points="128,62 90,46 98,94 132,96" fill="#080808"/>
<polygon points="78,98 101,121 78,146 55,121" fill="#ed0014"/>
</g>

<text x="788" y="123" font-family="Impact,Arial Black,sans-serif" font-size="34" fill="#fff">SPECIALIZATION</text>
<text x="790" y="160" font-family="Arial,Helvetica,sans-serif" font-size="19" fill="#ddd">backend architecture / AI tooling / full-stack systems</text>
<text x="790" y="191" font-family="Arial,Helvetica,sans-serif" font-size="19" fill="#ddd">3D interfaces / automation / weird experiments</text>

<polygon points="778,218 1310,208 1278,277 760,290" fill="#ed0014"/>
<text x="800" y="249" font-family="Arial Black,Arial,sans-serif" font-size="18" fill="#fff">PERSONAL RULE</text>
<text x="800" y="275" font-family="Arial,Helvetica,sans-serif" font-size="18" fill="#fff">if the architecture is boring, I probably haven't touched it yet.</text>
</svg>